<?xml version="1.0" encoding="utf-8"?>
<!-- Generator: Adobe Illustrator 19.2.1, SVG Export Plug-In . SVG Version: 6.00 Build 0)  -->
<svg version="1.1" id="Layer_1" xmlns="http://www.w3.org/2000/svg" xmlns:xlink="http://www.w3.org/1999/xlink" x="0px" y="0px"
	 viewBox="0 0 890.1 283.5" style="enable-background:new 0 0 890.1 283.5;" xml:space="preserve">
<style type="text/css">
	.st0{fill:url(#SVGID_1_);}
	.st1{fill:#FFFFFF;}
</style>
<title>oblako-svideteley-logo</title>
<linearGradient id="SVGID_1_" gradientUnits="userSpaceOnUse" x1="235.6615" y1="117.3385" x2="338.3767" y2="220.0538" gradientTransform="matrix(1 0 0 -1 0 283.46)">
	<stop  offset="0" style="stop-color:#00002C"/>
	<stop  offset="0.11" style="stop-color:#343457"/>
	<stop  offset="0.24" style="stop-color:#696983"/>
	<stop  offset="0.37" style="stop-color:#9797A9"/>
	<stop  offset="0.5" style="stop-color:#BCBCC8"/>
	<stop  offset="0.63" style="stop-color:#DADAE0"/>
	<stop  offset="0.75" style="stop-color:#EEEEF1"/>
	<stop  offset="0.88" style="stop-color:#FBFBFC"/>
	<stop  offset="1" style="stop-color:#FFFFFF"/>
</linearGradient>
<path class="st0" d="M296.3,87.9c17.4,0,33.8,8.4,43.9,22.7h35.2C358.3,66.8,309,45.3,265.3,62.4c-32.6,12.8-54.1,44.3-54,79.3h31.2
	C242.4,112,266.6,87.9,296.3,87.9L296.3,87.9z"/>
<path class="st1" d="M340.2,172.9c-17.2,24.3-50.8,30-75.1,12.7c-14.2-10.1-22.7-26.5-22.7-43.9c0-47-38.1-85.1-85-85.1
	c-47,0-85.1,38.1-85.1,85c0,47,38.1,85.1,85,85.1c26.6,0,51.7-12.4,67.8-33.6c-8.1-11.2-13.5-24.1-15.6-37.7
	c-7.5,28.8-37,46-65.8,38.5c-28.8-7.5-46-37-38.5-65.8s37-46,65.8-38.5c23.7,6.2,40.2,27.6,40.2,52.1c-0.1,46.9,37.9,85.1,84.8,85.2
	c35.1,0.1,66.6-21.4,79.3-54H340.2z"/>
<path class="st1" d="M278.9,141.7c0-9.3,7.5-16.9,17.5-16.9s17.4,7.5,17.4,16.9s-7.5,16.9-17.5,16.9S278.9,151.1,278.9,141.7z
	 M304.6,141.7c0-4.7-3.4-8.8-8.3-8.8s-8.2,4-8.2,8.8s3.4,8.8,8.3,8.8S304.6,146.5,304.6,141.7L304.6,141.7z"/>
<path class="st1" d="M318.5,125.5h26.1v7.6h-17.1v3.8h6.3c7.5,0,13,3.4,13,10.4c0,6.7-4.9,10.6-12.5,10.6h-15.7V125.5z M333.5,150.4
	c2.7,0,4.3-1.2,4.3-3.4c0-2-1.6-3.3-4.2-3.3h-6.1v6.7L333.5,150.4L333.5,150.4z"/>
<path class="st1" d="M347.4,157.7l0.6-6.9c0.7,0.1,1.4,0.2,2.1,0.2c2.5,0,5-1.3,5-20.9v-4.5H380V158h-9v-24.6h-7.5v1.3
	c0,19.8-4.4,23.8-10.7,23.8C350.9,158.4,349.1,158.2,347.4,157.7z"/>
<path class="st1" d="M396.9,125.3h8.7l13.8,32.7h-9.6l-2.4-5.8h-12.5l-2.3,5.8h-9.5L396.9,125.3z M404.8,145.2l-3.6-9.2l-3.7,9.2
	H404.8z"/>
<path class="st1" d="M422.5,125.5h9v13.2l11.2-13.2h10.6L441,139.5l12.7,18.5h-10.8l-8.1-12l-3.3,3.7v8.4h-9L422.5,125.5
	L422.5,125.5z"/>
<path class="st1" d="M452.9,141.7c0-9.3,7.5-16.9,17.5-16.9s17.4,7.5,17.4,16.9s-7.5,16.9-17.5,16.9S452.9,151.1,452.9,141.7z
	 M478.6,141.7c0-4.7-3.4-8.8-8.3-8.8s-8.2,4-8.2,8.8s3.4,8.8,8.3,8.8S478.6,146.5,478.6,141.7z"/>
<path class="st1" d="M492.8,141.7c0-9.2,6.9-16.8,16.4-16.8c5.9,0,9.3,2.2,12.5,5.2l-2.4,2.6c-2.7-2.6-5.8-4.4-10.2-4.4
	c-7.2,0-12.5,5.8-12.5,13.4s5.4,13.4,12.5,13.4c4.5,0,7.4-1.7,10.5-4.7l2.4,2.6c-3.3,3.7-8.1,5.7-13,5.5
	C499.7,158.5,492.8,151.1,492.8,141.7z"/>
<path class="st1" d="M528.4,125.5h13.8c3.7,0,6.7,1,8.5,2.9c1.4,1.4,2.1,3.3,2.1,5.3c0.1,3.3-2,6.4-5.1,7.5c3.8,1.2,7,3.4,7,7.9
	c0,5.6-4.7,8.9-11.8,8.9h-14.4V125.5z M541.6,140c4.4,0,7.5-2,7.5-5.9c0-3.2-2.5-5.3-7.2-5.3H532V140H541.6z M542.9,154.7
	c4.9,0,8-2.2,8-5.9c0-3.5-3-5.6-8.6-5.6H532v11.4H542.9z"/>
<path class="st1" d="M561.8,125.5h3.7v26.9l19.4-26.9h3.5v32.4h-3.6V131l-19.3,26.9h-3.6L561.8,125.5L561.8,125.5z"/>
<path class="st1" d="M593.4,154.6h3.3c3.1-5,4.9-12.9,4.9-23.4v-5.7h21.2v29.1h4.2l-0.6,10.6h-3.1v-7.2h-26.3l-0.7,7.2h-3.1
	L593.4,154.6L593.4,154.6z M619.2,154.6v-25.8h-14v4.2c0,8.4-1.6,17.1-4.3,21.5L619.2,154.6L619.2,154.6z"/>
<path class="st1" d="M632.4,125.5h23.4v3.3h-19.8v11.1h17.7v3.3h-17.7v11.4h20v3.3h-23.7V125.5z"/>
<path class="st1" d="M672,128.9h-10.8v-3.3h25.5v3.3h-10.9v29.1H672V128.9z"/>
<path class="st1" d="M693.5,125.5h23.4v3.3h-19.8v11.1h17.7v3.3h-17.7v11.4h20v3.3h-23.7V125.5z"/>
<path class="st1" d="M719.7,157.5l0.7-3c0.9,0.3,1.9,0.5,2.9,0.5c2.5,0,6.7-1.5,6.7-23.6v-5.9h21v32.4h-3.7v-29.1h-13.8v3.5
	c0,22.8-4.6,25.9-9.6,25.9C722.5,158.3,721.1,158,719.7,157.5z"/>
<path class="st1" d="M760.2,125.5h23.4v3.3h-19.8v11.1h17.7v3.3h-17.7v11.4h20v3.3h-23.7V125.5z"/>
<path class="st1" d="M791.2,125.5h3.7v26.9l19.4-26.9h3.5v32.4h-3.6V131l-19.3,26.9h-3.6V125.5z M798.1,117.1l2.5-0.5
	c0.5,2.3,2.8,3.7,5.1,3.1c1.6-0.4,2.8-1.6,3.1-3.1l2.5,0.5c-0.6,3.7-4,6.2-7.6,5.6C800.8,122.3,798.5,120,798.1,117.1L798.1,117.1z"
	/>
</svg>
