<svg id="Layer_1" data-name="Layer 1" xmlns="http://www.w3.org/2000/svg" xmlns:xlink="http://www.w3.org/1999/xlink" viewBox="0 0 890.1 283.46"><defs><style>.cls-1{fill:url(#linear-gradient);}.cls-2{fill:#0066b3;}.cls-3{fill:#414042;}</style><linearGradient id="linear-gradient" x1="235.71" y1="166.17" x2="338.35" y2="63.53" gradientUnits="userSpaceOnUse"><stop offset="0" stop-color="#2e3192"/><stop offset="1" stop-color="#0066b3"/></linearGradient></defs><title>oblako-svideteley-logo</title><path class="cls-1" d="M296.31,87.87a53.78,53.78,0,0,1,43.9,22.68h35.21a85,85,0,0,0-164.15,31.18h31.18A53.86,53.86,0,0,1,296.31,87.87Z"/><path class="cls-2" d="M340.21,172.91a53.85,53.85,0,0,1-97.76-31.18,85.06,85.06,0,1,0-17.34,51.44,87.42,87.42,0,0,1-15.61-37.74,53.88,53.88,0,1,1,1.76-13.7,85,85,0,0,0,164.15,31.18H340.21Z"/><path class="cls-3" d="M278.85,141.73c0-9.31,7.5-16.86,17.51-16.86s17.42,7.46,17.42,16.86-7.5,16.86-17.51,16.86S278.85,151.13,278.85,141.73Zm25.76,0c0-4.68-3.38-8.76-8.34-8.76s-8.2,4-8.2,8.76,3.38,8.76,8.29,8.76S304.6,146.5,304.6,141.73Z"/><path class="cls-3" d="M318.45,125.52h26.08v7.64H327.44v3.75h6.25c7.5,0,13,3.43,13,10.42,0,6.72-4.91,10.61-12.55,10.61H318.45V125.52Zm15,24.88c2.69,0,4.26-1.21,4.26-3.43,0-2-1.57-3.29-4.21-3.29h-6.07v6.72h6Z"/><path class="cls-3" d="M347.36,157.67l0.6-6.9a15.82,15.82,0,0,0,2.08.19c2.55,0,5-1.3,5-20.94v-4.49h24.92v32.43h-9V133.39h-7.55v1.25c0,19.78-4.36,23.76-10.66,23.76A20.44,20.44,0,0,1,347.36,157.67Z"/><path class="cls-3" d="M396.88,125.28h8.66l13.8,32.66h-9.64l-2.36-5.79H394.84l-2.32,5.79h-9.45Zm7.88,19.87-3.61-9.22-3.66,9.22h7.27Z"/><path class="cls-3" d="M422.5,125.52h9v13.16l11.16-13.16H453.3L441,139.46l12.69,18.48H442.93l-8.15-12-3.29,3.66v8.38h-9V125.52Z"/><path class="cls-3" d="M452.88,141.73c0-9.31,7.5-16.86,17.51-16.86s17.42,7.46,17.42,16.86-7.5,16.86-17.51,16.86S452.88,151.13,452.88,141.73Zm25.76,0c0-4.68-3.38-8.76-8.34-8.76s-8.2,4-8.2,8.76,3.38,8.76,8.29,8.76S478.64,146.5,478.64,141.73Z"/><path class="cls-3" d="M492.77,141.73c0-9.17,6.86-16.77,16.4-16.77,5.88,0,9.31,2.18,12.55,5.24l-2.41,2.59c-2.73-2.59-5.79-4.45-10.19-4.45-7.18,0-12.55,5.84-12.55,13.39s5.42,13.39,12.55,13.39c4.45,0,7.37-1.71,10.47-4.68L522,153a16.75,16.75,0,0,1-13,5.51C499.67,158.5,492.77,151.13,492.77,141.73Z"/><path class="cls-3" d="M528.39,125.52H542.2c3.71,0,6.67,1,8.48,2.87a7.27,7.27,0,0,1,2.08,5.28,7.83,7.83,0,0,1-5.14,7.5c3.84,1.16,6.95,3.38,6.95,7.92,0,5.56-4.68,8.85-11.77,8.85H528.39V125.52ZM541.59,140c4.4,0,7.46-2,7.46-5.88,0-3.2-2.55-5.28-7.18-5.28H532V140h9.59Zm1.3,14.69c4.91,0,8-2.18,8-5.88,0-3.52-3-5.56-8.62-5.56H532v11.44h10.89Z"/><path class="cls-3" d="M561.84,125.52h3.66v26.91l19.36-26.91h3.47v32.43h-3.61V131L565.4,157.94h-3.57V125.52Z"/><path class="cls-3" d="M593.38,154.61h3.34c3.1-5,4.91-12.92,4.91-23.44v-5.65h21.22v29.09h4.21l-0.56,10.56h-3.06v-7.23H597.14l-0.65,7.23h-3.1V154.61Zm25.8,0V128.85h-14v4.22c0,8.38-1.62,17.09-4.31,21.54h18.34Z"/><path class="cls-3" d="M632.43,125.52h23.44v3.33H636.09v11.07h17.7v3.33h-17.7v11.35h20v3.34H632.43V125.52Z"/><path class="cls-3" d="M672,128.85H661.15v-3.33h25.48v3.33H675.75v29.09H672V128.85Z"/><path class="cls-3" d="M693.49,125.52h23.44v3.33H697.15v11.07h17.7v3.33h-17.7v11.35h20v3.34H693.49V125.52Z"/><path class="cls-3" d="M719.71,157.53l0.74-3a9,9,0,0,0,2.87.46c2.5,0,6.72-1.53,6.72-23.63v-5.88h21v32.43h-3.66V128.85h-13.8v3.52c0,22.75-4.63,25.94-9.64,25.94A14.24,14.24,0,0,1,719.71,157.53Z"/><path class="cls-3" d="M760.19,125.52h23.44v3.33H763.85v11.07h17.7v3.33h-17.7v11.35h20v3.34H760.19V125.52Z"/><path class="cls-3" d="M791.23,125.52h3.66v26.91l19.36-26.91h3.47v32.43h-3.61V131L794.8,157.94h-3.57V125.52Zm6.86-8.38,2.5-.51a4.24,4.24,0,0,0,8.25,0l2.5,0.51A6.7,6.7,0,0,1,798.09,117.13Z"/></svg>